<?xml version="1.0" encoding="utf-8" standalone="no"?>
<!DOCTYPE svg PUBLIC "-//W3C//DTD SVG 1.1//EN"
  "http://www.w3.org/Graphics/SVG/1.1/DTD/svg11.dtd">
<svg xmlns:xlink="http://www.w3.org/1999/xlink" width="792pt" height="576pt" viewBox="0 0 792 576" xmlns="http://www.w3.org/2000/svg" version="1.1">
 <metadata>
  <rdf:RDF xmlns:dc="http://purl.org/dc/elements/1.1/" xmlns:cc="http://creativecommons.org/ns#" xmlns:rdf="http://www.w3.org/1999/02/22-rdf-syntax-ns#">
   <cc:Work>
    <dc:type rdf:resource="http://purl.org/dc/dcmitype/StillImage"/>
    <dc:date>2023-05-09T09:40:20.673090</dc:date>
    <dc:format>image/svg+xml</dc:format>
    <dc:creator>
     <cc:Agent>
      <dc:title>Matplotlib v3.7.1, https://matplotlib.org/</dc:title>
     </cc:Agent>
    </dc:creator>
   </cc:Work>
  </rdf:RDF>
 </metadata>
 <defs>
  <style type="text/css">*{stroke-linejoin: round; stroke-linecap: butt}</style>
 </defs>
 <g id="figure_1">
  <g id="patch_1">
   <path d="M 0 576 
L 792 576 
L 792 0 
L 0 0 
z
" style="fill: #ffffff"/>
  </g>
  <g id="axes_1">
   <g id="patch_2">
    <path d="M 47.72 463.743172 
L 556.87 463.743172 
L 556.87 26.68875 
L 47.72 26.68875 
z
" style="fill: #ffffff"/>
   </g>
   <g id="matplotlib.axis_1">
    <g id="xtick_1">
     <g id="line2d_1">
      <defs>
       <path id="m71fc592408" d="M 0 0 
L 0 3.5 
" style="stroke: #000000; stroke-width: 0.8"/>
      </defs>
      <g>
       <use xlink:href="#m71fc592408" x="63.630938" y="463.743172" style="stroke: #000000; stroke-width: 0.8"/>
      </g>
     </g>
     <g id="text_1">
      <!-- GDI_2021_M_1_SA_1 -->
      <g transform="translate(28.800957 549.232025) rotate(-45) scale(0.1 -0.1)">
       <defs>
        <path id="DejaVuSans-47" d="M 3809 666 
L 3809 1919 
L 2778 1919 
L 2778 2438 
L 4434 2438 
L 4434 434 
Q 4069 175 3628 42 
Q 3188 -91 2688 -91 
Q 1594 -91 976 548 
Q 359 1188 359 2328 
Q 359 3472 976 4111 
Q 1594 4750 2688 4750 
Q 3144 4750 3555 4637 
Q 3966 4525 4313 4306 
L 4313 3634 
Q 3963 3931 3569 4081 
Q 3175 4231 2741 4231 
Q 1884 4231 1454 3753 
Q 1025 3275 1025 2328 
Q 1025 1384 1454 906 
Q 1884 428 2741 428 
Q 3075 428 3337 486 
Q 3600 544 3809 666 
z
" transform="scale(0.015625)"/>
        <path id="DejaVuSans-44" d="M 1259 4147 
L 1259 519 
L 2022 519 
Q 2988 519 3436 956 
Q 3884 1394 3884 2338 
Q 3884 3275 3436 3711 
Q 2988 4147 2022 4147 
L 1259 4147 
z
M 628 4666 
L 1925 4666 
Q 3281 4666 3915 4102 
Q 4550 3538 4550 2338 
Q 4550 1131 3912 565 
Q 3275 0 1925 0 
L 628 0 
L 628 4666 
z
" transform="scale(0.015625)"/>
        <path id="DejaVuSans-49" d="M 628 4666 
L 1259 4666 
L 1259 0 
L 628 0 
L 628 4666 
z
" transform="scale(0.015625)"/>
        <path id="DejaVuSans-5f" d="M 3263 -1063 
L 3263 -1509 
L -63 -1509 
L -63 -1063 
L 3263 -1063 
z
" transform="scale(0.015625)"/>
        <path id="DejaVuSans-32" d="M 1228 531 
L 3431 531 
L 3431 0 
L 469 0 
L 469 531 
Q 828 903 1448 1529 
Q 2069 2156 2228 2338 
Q 2531 2678 2651 2914 
Q 2772 3150 2772 3378 
Q 2772 3750 2511 3984 
Q 2250 4219 1831 4219 
Q 1534 4219 1204 4116 
Q 875 4013 500 3803 
L 500 4441 
Q 881 4594 1212 4672 
Q 1544 4750 1819 4750 
Q 2544 4750 2975 4387 
Q 3406 4025 3406 3419 
Q 3406 3131 3298 2873 
Q 3191 2616 2906 2266 
Q 2828 2175 2409 1742 
Q 1991 1309 1228 531 
z
" transform="scale(0.015625)"/>
        <path id="DejaVuSans-30" d="M 2034 4250 
Q 1547 4250 1301 3770 
Q 1056 3291 1056 2328 
Q 1056 1369 1301 889 
Q 1547 409 2034 409 
Q 2525 409 2770 889 
Q 3016 1369 3016 2328 
Q 3016 3291 2770 3770 
Q 2525 4250 2034 4250 
z
M 2034 4750 
Q 2819 4750 3233 4129 
Q 3647 3509 3647 2328 
Q 3647 1150 3233 529 
Q 2819 -91 2034 -91 
Q 1250 -91 836 529 
Q 422 1150 422 2328 
Q 422 3509 836 4129 
Q 1250 4750 2034 4750 
z
" transform="scale(0.015625)"/>
        <path id="DejaVuSans-31" d="M 794 531 
L 1825 531 
L 1825 4091 
L 703 3866 
L 703 4441 
L 1819 4666 
L 2450 4666 
L 2450 531 
L 3481 531 
L 3481 0 
L 794 0 
L 794 531 
z
" transform="scale(0.015625)"/>
        <path id="DejaVuSans-4d" d="M 628 4666 
L 1569 4666 
L 2759 1491 
L 3956 4666 
L 4897 4666 
L 4897 0 
L 4281 0 
L 4281 4097 
L 3078 897 
L 2444 897 
L 1241 4097 
L 1241 0 
L 628 0 
L 628 4666 
z
" transform="scale(0.015625)"/>
        <path id="DejaVuSans-53" d="M 3425 4513 
L 3425 3897 
Q 3066 4069 2747 4153 
Q 2428 4238 2131 4238 
Q 1616 4238 1336 4038 
Q 1056 3838 1056 3469 
Q 1056 3159 1242 3001 
Q 1428 2844 1947 2747 
L 2328 2669 
Q 3034 2534 3370 2195 
Q 3706 1856 3706 1288 
Q 3706 609 3251 259 
Q 2797 -91 1919 -91 
Q 1588 -91 1214 -16 
Q 841 59 441 206 
L 441 856 
Q 825 641 1194 531 
Q 1563 422 1919 422 
Q 2459 422 2753 634 
Q 3047 847 3047 1241 
Q 3047 1584 2836 1778 
Q 2625 1972 2144 2069 
L 1759 2144 
Q 1053 2284 737 2584 
Q 422 2884 422 3419 
Q 422 4038 858 4394 
Q 1294 4750 2059 4750 
Q 2388 4750 2728 4690 
Q 3069 4631 3425 4513 
z
" transform="scale(0.015625)"/>
        <path id="DejaVuSans-41" d="M 2188 4044 
L 1331 1722 
L 3047 1722 
L 2188 4044 
z
M 1831 4666 
L 2547 4666 
L 4325 0 
L 3669 0 
L 3244 1197 
L 1141 1197 
L 716 0 
L 50 0 
L 1831 4666 
z
" transform="scale(0.015625)"/>
       </defs>
       <use xlink:href="#DejaVuSans-47"/>
       <use xlink:href="#DejaVuSans-44" x="77.490234"/>
       <use xlink:href="#DejaVuSans-49" x="154.492188"/>
       <use xlink:href="#DejaVuSans-5f" x="183.984375"/>
       <use xlink:href="#DejaVuSans-32" x="233.984375"/>
       <use xlink:href="#DejaVuSans-30" x="297.607422"/>
       <use xlink:href="#DejaVuSans-32" x="361.230469"/>
       <use xlink:href="#DejaVuSans-31" x="424.853516"/>
       <use xlink:href="#DejaVuSans-5f" x="488.476562"/>
       <use xlink:href="#DejaVuSans-4d" x="538.476562"/>
       <use xlink:href="#DejaVuSans-5f" x="624.755859"/>
       <use xlink:href="#DejaVuSans-31" x="674.755859"/>
       <use xlink:href="#DejaVuSans-5f" x="738.378906"/>
       <use xlink:href="#DejaVuSans-53" x="788.378906"/>
       <use xlink:href="#DejaVuSans-41" x="853.730469"/>
       <use xlink:href="#DejaVuSans-5f" x="922.138672"/>
       <use xlink:href="#DejaVuSans-31" x="972.138672"/>
      </g>
     </g>
    </g>
    <g id="xtick_2">
     <g id="line2d_2">
      <g>
       <use xlink:href="#m71fc592408" x="127.274688" y="463.743172" style="stroke: #000000; stroke-width: 0.8"/>
      </g>
     </g>
     <g id="text_2">
      <!-- GDI_2021_M_2_SA_1 -->
      <g transform="translate(92.444707 549.232025) rotate(-45) scale(0.1 -0.1)">
       <use xlink:href="#DejaVuSans-47"/>
       <use xlink:href="#DejaVuSans-44" x="77.490234"/>
       <use xlink:href="#DejaVuSans-49" x="154.492188"/>
       <use xlink:href="#DejaVuSans-5f" x="183.984375"/>
       <use xlink:href="#DejaVuSans-32" x="233.984375"/>
       <use xlink:href="#DejaVuSans-30" x="297.607422"/>
       <use xlink:href="#DejaVuSans-32" x="361.230469"/>
       <use xlink:href="#DejaVuSans-31" x="424.853516"/>
       <use xlink:href="#DejaVuSans-5f" x="488.476562"/>
       <use xlink:href="#DejaVuSans-4d" x="538.476562"/>
       <use xlink:href="#DejaVuSans-5f" x="624.755859"/>
       <use xlink:href="#DejaVuSans-32" x="674.755859"/>
       <use xlink:href="#DejaVuSans-5f" x="738.378906"/>
       <use xlink:href="#DejaVuSans-53" x="788.378906"/>
       <use xlink:href="#DejaVuSans-41" x="853.730469"/>
       <use xlink:href="#DejaVuSans-5f" x="922.138672"/>
       <use xlink:href="#DejaVuSans-31" x="972.138672"/>
      </g>
     </g>
    </g>
    <g id="xtick_3">
     <g id="line2d_3">
      <g>
       <use xlink:href="#m71fc592408" x="190.918438" y="463.743172" style="stroke: #000000; stroke-width: 0.8"/>
      </g>
     </g>
     <g id="text_3">
      <!-- GDI_2021_M_2_SA_3 -->
      <g transform="translate(156.088457 549.232025) rotate(-45) scale(0.1 -0.1)">
       <defs>
        <path id="DejaVuSans-33" d="M 2597 2516 
Q 3050 2419 3304 2112 
Q 3559 1806 3559 1356 
Q 3559 666 3084 287 
Q 2609 -91 1734 -91 
Q 1441 -91 1130 -33 
Q 819 25 488 141 
L 488 750 
Q 750 597 1062 519 
Q 1375 441 1716 441 
Q 2309 441 2620 675 
Q 2931 909 2931 1356 
Q 2931 1769 2642 2001 
Q 2353 2234 1838 2234 
L 1294 2234 
L 1294 2753 
L 1863 2753 
Q 2328 2753 2575 2939 
Q 2822 3125 2822 3475 
Q 2822 3834 2567 4026 
Q 2313 4219 1838 4219 
Q 1578 4219 1281 4162 
Q 984 4106 628 3988 
L 628 4550 
Q 988 4650 1302 4700 
Q 1616 4750 1894 4750 
Q 2613 4750 3031 4423 
Q 3450 4097 3450 3541 
Q 3450 3153 3228 2886 
Q 3006 2619 2597 2516 
z
" transform="scale(0.015625)"/>
       </defs>
       <use xlink:href="#DejaVuSans-47"/>
       <use xlink:href="#DejaVuSans-44" x="77.490234"/>
       <use xlink:href="#DejaVuSans-49" x="154.492188"/>
       <use xlink:href="#DejaVuSans-5f" x="183.984375"/>
       <use xlink:href="#DejaVuSans-32" x="233.984375"/>
       <use xlink:href="#DejaVuSans-30" x="297.607422"/>
       <use xlink:href="#DejaVuSans-32" x="361.230469"/>
       <use xlink:href="#DejaVuSans-31" x="424.853516"/>
       <use xlink:href="#DejaVuSans-5f" x="488.476562"/>
       <use xlink:href="#DejaVuSans-4d" x="538.476562"/>
       <use xlink:href="#DejaVuSans-5f" x="624.755859"/>
       <use xlink:href="#DejaVuSans-32" x="674.755859"/>
       <use xlink:href="#DejaVuSans-5f" x="738.378906"/>
       <use xlink:href="#DejaVuSans-53" x="788.378906"/>
       <use xlink:href="#DejaVuSans-41" x="853.730469"/>
       <use xlink:href="#DejaVuSans-5f" x="922.138672"/>
       <use xlink:href="#DejaVuSans-33" x="972.138672"/>
      </g>
     </g>
    </g>
    <g id="xtick_4">
     <g id="line2d_4">
      <g>
       <use xlink:href="#m71fc592408" x="254.562188" y="463.743172" style="stroke: #000000; stroke-width: 0.8"/>
      </g>
     </g>
     <g id="text_4">
      <!-- GDI_2021_M_3_SA_2 -->
      <g transform="translate(219.732207 549.232025) rotate(-45) scale(0.1 -0.1)">
       <use xlink:href="#DejaVuSans-47"/>
       <use xlink:href="#DejaVuSans-44" x="77.490234"/>
       <use xlink:href="#DejaVuSans-49" x="154.492188"/>
       <use xlink:href="#DejaVuSans-5f" x="183.984375"/>
       <use xlink:href="#DejaVuSans-32" x="233.984375"/>
       <use xlink:href="#DejaVuSans-30" x="297.607422"/>
       <use xlink:href="#DejaVuSans-32" x="361.230469"/>
       <use xlink:href="#DejaVuSans-31" x="424.853516"/>
       <use xlink:href="#DejaVuSans-5f" x="488.476562"/>
       <use xlink:href="#DejaVuSans-4d" x="538.476562"/>
       <use xlink:href="#DejaVuSans-5f" x="624.755859"/>
       <use xlink:href="#DejaVuSans-33" x="674.755859"/>
       <use xlink:href="#DejaVuSans-5f" x="738.378906"/>
       <use xlink:href="#DejaVuSans-53" x="788.378906"/>
       <use xlink:href="#DejaVuSans-41" x="853.730469"/>
       <use xlink:href="#DejaVuSans-5f" x="922.138672"/>
       <use xlink:href="#DejaVuSans-32" x="972.138672"/>
      </g>
     </g>
    </g>
    <g id="xtick_5">
     <g id="line2d_5">
      <g>
       <use xlink:href="#m71fc592408" x="318.205938" y="463.743172" style="stroke: #000000; stroke-width: 0.8"/>
      </g>
     </g>
     <g id="text_5">
      <!-- GDI_2021_M_3_SA_4 -->
      <g transform="translate(283.375957 549.232025) rotate(-45) scale(0.1 -0.1)">
       <defs>
        <path id="DejaVuSans-34" d="M 2419 4116 
L 825 1625 
L 2419 1625 
L 2419 4116 
z
M 2253 4666 
L 3047 4666 
L 3047 1625 
L 3713 1625 
L 3713 1100 
L 3047 1100 
L 3047 0 
L 2419 0 
L 2419 1100 
L 313 1100 
L 313 1709 
L 2253 4666 
z
" transform="scale(0.015625)"/>
       </defs>
       <use xlink:href="#DejaVuSans-47"/>
       <use xlink:href="#DejaVuSans-44" x="77.490234"/>
       <use xlink:href="#DejaVuSans-49" x="154.492188"/>
       <use xlink:href="#DejaVuSans-5f" x="183.984375"/>
       <use xlink:href="#DejaVuSans-32" x="233.984375"/>
       <use xlink:href="#DejaVuSans-30" x="297.607422"/>
       <use xlink:href="#DejaVuSans-32" x="361.230469"/>
       <use xlink:href="#DejaVuSans-31" x="424.853516"/>
       <use xlink:href="#DejaVuSans-5f" x="488.476562"/>
       <use xlink:href="#DejaVuSans-4d" x="538.476562"/>
       <use xlink:href="#DejaVuSans-5f" x="624.755859"/>
       <use xlink:href="#DejaVuSans-33" x="674.755859"/>
       <use xlink:href="#DejaVuSans-5f" x="738.378906"/>
       <use xlink:href="#DejaVuSans-53" x="788.378906"/>
       <use xlink:href="#DejaVuSans-41" x="853.730469"/>
       <use xlink:href="#DejaVuSans-5f" x="922.138672"/>
       <use xlink:href="#DejaVuSans-34" x="972.138672"/>
      </g>
     </g>
    </g>
    <g id="xtick_6">
     <g id="line2d_6">
      <g>
       <use xlink:href="#m71fc592408" x="381.849688" y="463.743172" style="stroke: #000000; stroke-width: 0.8"/>
      </g>
     </g>
     <g id="text_6">
      <!-- GDI_2021_M_4_SA_2 -->
      <g transform="translate(347.019707 549.232025) rotate(-45) scale(0.1 -0.1)">
       <use xlink:href="#DejaVuSans-47"/>
       <use xlink:href="#DejaVuSans-44" x="77.490234"/>
       <use xlink:href="#DejaVuSans-49" x="154.492188"/>
       <use xlink:href="#DejaVuSans-5f" x="183.984375"/>
       <use xlink:href="#DejaVuSans-32" x="233.984375"/>
       <use xlink:href="#DejaVuSans-30" x="297.607422"/>
       <use xlink:href="#DejaVuSans-32" x="361.230469"/>
       <use xlink:href="#DejaVuSans-31" x="424.853516"/>
       <use xlink:href="#DejaVuSans-5f" x="488.476562"/>
       <use xlink:href="#DejaVuSans-4d" x="538.476562"/>
       <use xlink:href="#DejaVuSans-5f" x="624.755859"/>
       <use xlink:href="#DejaVuSans-34" x="674.755859"/>
       <use xlink:href="#DejaVuSans-5f" x="738.378906"/>
       <use xlink:href="#DejaVuSans-53" x="788.378906"/>
       <use xlink:href="#DejaVuSans-41" x="853.730469"/>
       <use xlink:href="#DejaVuSans-5f" x="922.138672"/>
       <use xlink:href="#DejaVuSans-32" x="972.138672"/>
      </g>
     </g>
    </g>
    <g id="xtick_7">
     <g id="line2d_7">
      <g>
       <use xlink:href="#m71fc592408" x="445.493438" y="463.743172" style="stroke: #000000; stroke-width: 0.8"/>
      </g>
     </g>
     <g id="text_7">
      <!-- GDI_2021_M_5_SA_1 -->
      <g transform="translate(410.663457 549.232025) rotate(-45) scale(0.1 -0.1)">
       <defs>
        <path id="DejaVuSans-35" d="M 691 4666 
L 3169 4666 
L 3169 4134 
L 1269 4134 
L 1269 2991 
Q 1406 3038 1543 3061 
Q 1681 3084 1819 3084 
Q 2600 3084 3056 2656 
Q 3513 2228 3513 1497 
Q 3513 744 3044 326 
Q 2575 -91 1722 -91 
Q 1428 -91 1123 -41 
Q 819 9 494 109 
L 494 744 
Q 775 591 1075 516 
Q 1375 441 1709 441 
Q 2250 441 2565 725 
Q 2881 1009 2881 1497 
Q 2881 1984 2565 2268 
Q 2250 2553 1709 2553 
Q 1456 2553 1204 2497 
Q 953 2441 691 2322 
L 691 4666 
z
" transform="scale(0.015625)"/>
       </defs>
       <use xlink:href="#DejaVuSans-47"/>
       <use xlink:href="#DejaVuSans-44" x="77.490234"/>
       <use xlink:href="#DejaVuSans-49" x="154.492188"/>
       <use xlink:href="#DejaVuSans-5f" x="183.984375"/>
       <use xlink:href="#DejaVuSans-32" x="233.984375"/>
       <use xlink:href="#DejaVuSans-30" x="297.607422"/>
       <use xlink:href="#DejaVuSans-32" x="361.230469"/>
       <use xlink:href="#DejaVuSans-31" x="424.853516"/>
       <use xlink:href="#DejaVuSans-5f" x="488.476562"/>
       <use xlink:href="#DejaVuSans-4d" x="538.476562"/>
       <use xlink:href="#DejaVuSans-5f" x="624.755859"/>
       <use xlink:href="#DejaVuSans-35" x="674.755859"/>
       <use xlink:href="#DejaVuSans-5f" x="738.378906"/>
       <use xlink:href="#DejaVuSans-53" x="788.378906"/>
       <use xlink:href="#DejaVuSans-41" x="853.730469"/>
       <use xlink:href="#DejaVuSans-5f" x="922.138672"/>
       <use xlink:href="#DejaVuSans-31" x="972.138672"/>
      </g>
     </g>
    </g>
    <g id="xtick_8">
     <g id="line2d_8">
      <g>
       <use xlink:href="#m71fc592408" x="509.137188" y="463.743172" style="stroke: #000000; stroke-width: 0.8"/>
      </g>
     </g>
     <g id="text_8">
      <!-- GDI_2021_M_6_SA_2 -->
      <g transform="translate(474.307207 549.232025) rotate(-45) scale(0.1 -0.1)">
       <defs>
        <path id="DejaVuSans-36" d="M 2113 2584 
Q 1688 2584 1439 2293 
Q 1191 2003 1191 1497 
Q 1191 994 1439 701 
Q 1688 409 2113 409 
Q 2538 409 2786 701 
Q 3034 994 3034 1497 
Q 3034 2003 2786 2293 
Q 2538 2584 2113 2584 
z
M 3366 4563 
L 3366 3988 
Q 3128 4100 2886 4159 
Q 2644 4219 2406 4219 
Q 1781 4219 1451 3797 
Q 1122 3375 1075 2522 
Q 1259 2794 1537 2939 
Q 1816 3084 2150 3084 
Q 2853 3084 3261 2657 
Q 3669 2231 3669 1497 
Q 3669 778 3244 343 
Q 2819 -91 2113 -91 
Q 1303 -91 875 529 
Q 447 1150 447 2328 
Q 447 3434 972 4092 
Q 1497 4750 2381 4750 
Q 2619 4750 2861 4703 
Q 3103 4656 3366 4563 
z
" transform="scale(0.015625)"/>
       </defs>
       <use xlink:href="#DejaVuSans-47"/>
       <use xlink:href="#DejaVuSans-44" x="77.490234"/>
       <use xlink:href="#DejaVuSans-49" x="154.492188"/>
       <use xlink:href="#DejaVuSans-5f" x="183.984375"/>
       <use xlink:href="#DejaVuSans-32" x="233.984375"/>
       <use xlink:href="#DejaVuSans-30" x="297.607422"/>
       <use xlink:href="#DejaVuSans-32" x="361.230469"/>
       <use xlink:href="#DejaVuSans-31" x="424.853516"/>
       <use xlink:href="#DejaVuSans-5f" x="488.476562"/>
       <use xlink:href="#DejaVuSans-4d" x="538.476562"/>
       <use xlink:href="#DejaVuSans-5f" x="624.755859"/>
       <use xlink:href="#DejaVuSans-36" x="674.755859"/>
       <use xlink:href="#DejaVuSans-5f" x="738.378906"/>
       <use xlink:href="#DejaVuSans-53" x="788.378906"/>
       <use xlink:href="#DejaVuSans-41" x="853.730469"/>
       <use xlink:href="#DejaVuSans-5f" x="922.138672"/>
       <use xlink:href="#DejaVuSans-32" x="972.138672"/>
      </g>
     </g>
    </g>
    <g id="text_9">
     <!-- Project -->
     <g transform="translate(285.190313 562.497688) scale(0.1 -0.1)">
      <defs>
       <path id="DejaVuSans-50" d="M 1259 4147 
L 1259 2394 
L 2053 2394 
Q 2494 2394 2734 2622 
Q 2975 2850 2975 3272 
Q 2975 3691 2734 3919 
Q 2494 4147 2053 4147 
L 1259 4147 
z
M 628 4666 
L 2053 4666 
Q 2838 4666 3239 4311 
Q 3641 3956 3641 3272 
Q 3641 2581 3239 2228 
Q 2838 1875 2053 1875 
L 1259 1875 
L 1259 0 
L 628 0 
L 628 4666 
z
" transform="scale(0.015625)"/>
       <path id="DejaVuSans-72" d="M 2631 2963 
Q 2534 3019 2420 3045 
Q 2306 3072 2169 3072 
Q 1681 3072 1420 2755 
Q 1159 2438 1159 1844 
L 1159 0 
L 581 0 
L 581 3500 
L 1159 3500 
L 1159 2956 
Q 1341 3275 1631 3429 
Q 1922 3584 2338 3584 
Q 2397 3584 2469 3576 
Q 2541 3569 2628 3553 
L 2631 2963 
z
" transform="scale(0.015625)"/>
       <path id="DejaVuSans-6f" d="M 1959 3097 
Q 1497 3097 1228 2736 
Q 959 2375 959 1747 
Q 959 1119 1226 758 
Q 1494 397 1959 397 
Q 2419 397 2687 759 
Q 2956 1122 2956 1747 
Q 2956 2369 2687 2733 
Q 2419 3097 1959 3097 
z
M 1959 3584 
Q 2709 3584 3137 3096 
Q 3566 2609 3566 1747 
Q 3566 888 3137 398 
Q 2709 -91 1959 -91 
Q 1206 -91 779 398 
Q 353 888 353 1747 
Q 353 2609 779 3096 
Q 1206 3584 1959 3584 
z
" transform="scale(0.015625)"/>
       <path id="DejaVuSans-6a" d="M 603 3500 
L 1178 3500 
L 1178 -63 
Q 1178 -731 923 -1031 
Q 669 -1331 103 -1331 
L -116 -1331 
L -116 -844 
L 38 -844 
Q 366 -844 484 -692 
Q 603 -541 603 -63 
L 603 3500 
z
M 603 4863 
L 1178 4863 
L 1178 4134 
L 603 4134 
L 603 4863 
z
" transform="scale(0.015625)"/>
       <path id="DejaVuSans-65" d="M 3597 1894 
L 3597 1613 
L 953 1613 
Q 991 1019 1311 708 
Q 1631 397 2203 397 
Q 2534 397 2845 478 
Q 3156 559 3463 722 
L 3463 178 
Q 3153 47 2828 -22 
Q 2503 -91 2169 -91 
Q 1331 -91 842 396 
Q 353 884 353 1716 
Q 353 2575 817 3079 
Q 1281 3584 2069 3584 
Q 2775 3584 3186 3129 
Q 3597 2675 3597 1894 
z
M 3022 2063 
Q 3016 2534 2758 2815 
Q 2500 3097 2075 3097 
Q 1594 3097 1305 2825 
Q 1016 2553 972 2059 
L 3022 2063 
z
" transform="scale(0.015625)"/>
       <path id="DejaVuSans-63" d="M 3122 3366 
L 3122 2828 
Q 2878 2963 2633 3030 
Q 2388 3097 2138 3097 
Q 1578 3097 1268 2742 
Q 959 2388 959 1747 
Q 959 1106 1268 751 
Q 1578 397 2138 397 
Q 2388 397 2633 464 
Q 2878 531 3122 666 
L 3122 134 
Q 2881 22 2623 -34 
Q 2366 -91 2075 -91 
Q 1284 -91 818 406 
Q 353 903 353 1747 
Q 353 2603 823 3093 
Q 1294 3584 2113 3584 
Q 2378 3584 2631 3529 
Q 2884 3475 3122 3366 
z
" transform="scale(0.015625)"/>
       <path id="DejaVuSans-74" d="M 1172 4494 
L 1172 3500 
L 2356 3500 
L 2356 3053 
L 1172 3053 
L 1172 1153 
Q 1172 725 1289 603 
Q 1406 481 1766 481 
L 2356 481 
L 2356 0 
L 1766 0 
Q 1100 0 847 248 
Q 594 497 594 1153 
L 594 3053 
L 172 3053 
L 172 3500 
L 594 3500 
L 594 4494 
L 1172 4494 
z
" transform="scale(0.015625)"/>
      </defs>
      <use xlink:href="#DejaVuSans-50"/>
      <use xlink:href="#DejaVuSans-72" x="58.552734"/>
      <use xlink:href="#DejaVuSans-6f" x="97.416016"/>
      <use xlink:href="#DejaVuSans-6a" x="158.597656"/>
      <use xlink:href="#DejaVuSans-65" x="186.380859"/>
      <use xlink:href="#DejaVuSans-63" x="247.904297"/>
      <use xlink:href="#DejaVuSans-74" x="302.884766"/>
     </g>
    </g>
   </g>
   <g id="matplotlib.axis_2">
    <g id="ytick_1">
     <g id="line2d_9">
      <defs>
       <path id="m72b1119681" d="M 0 0 
L -3.5 0 
" style="stroke: #000000; stroke-width: 0.8"/>
      </defs>
      <g>
       <use xlink:href="#m72b1119681" x="47.72" y="443.877062" style="stroke: #000000; stroke-width: 0.8"/>
      </g>
     </g>
     <g id="text_10">
      <!-- 0.0 -->
      <g transform="translate(24.816875 447.676281) scale(0.1 -0.1)">
       <defs>
        <path id="DejaVuSans-2e" d="M 684 794 
L 1344 794 
L 1344 0 
L 684 0 
L 684 794 
z
" transform="scale(0.015625)"/>
       </defs>
       <use xlink:href="#DejaVuSans-30"/>
       <use xlink:href="#DejaVuSans-2e" x="63.623047"/>
       <use xlink:href="#DejaVuSans-30" x="95.410156"/>
      </g>
     </g>
    </g>
    <g id="ytick_2">
     <g id="line2d_10">
      <g>
       <use xlink:href="#m72b1119681" x="47.72" y="404.144842" style="stroke: #000000; stroke-width: 0.8"/>
      </g>
     </g>
     <g id="text_11">
      <!-- 0.1 -->
      <g transform="translate(24.816875 407.944061) scale(0.1 -0.1)">
       <use xlink:href="#DejaVuSans-30"/>
       <use xlink:href="#DejaVuSans-2e" x="63.623047"/>
       <use xlink:href="#DejaVuSans-31" x="95.410156"/>
      </g>
     </g>
    </g>
    <g id="ytick_3">
     <g id="line2d_11">
      <g>
       <use xlink:href="#m72b1119681" x="47.72" y="364.412622" style="stroke: #000000; stroke-width: 0.8"/>
      </g>
     </g>
     <g id="text_12">
      <!-- 0.2 -->
      <g transform="translate(24.816875 368.21184) scale(0.1 -0.1)">
       <use xlink:href="#DejaVuSans-30"/>
       <use xlink:href="#DejaVuSans-2e" x="63.623047"/>
       <use xlink:href="#DejaVuSans-32" x="95.410156"/>
      </g>
     </g>
    </g>
    <g id="ytick_4">
     <g id="line2d_12">
      <g>
       <use xlink:href="#m72b1119681" x="47.72" y="324.680401" style="stroke: #000000; stroke-width: 0.8"/>
      </g>
     </g>
     <g id="text_13">
      <!-- 0.3 -->
      <g transform="translate(24.816875 328.47962) scale(0.1 -0.1)">
       <use xlink:href="#DejaVuSans-30"/>
       <use xlink:href="#DejaVuSans-2e" x="63.623047"/>
       <use xlink:href="#DejaVuSans-33" x="95.410156"/>
      </g>
     </g>
    </g>
    <g id="ytick_5">
     <g id="line2d_13">
      <g>
       <use xlink:href="#m72b1119681" x="47.72" y="284.948181" style="stroke: #000000; stroke-width: 0.8"/>
      </g>
     </g>
     <g id="text_14">
      <!-- 0.4 -->
      <g transform="translate(24.816875 288.7474) scale(0.1 -0.1)">
       <use xlink:href="#DejaVuSans-30"/>
       <use xlink:href="#DejaVuSans-2e" x="63.623047"/>
       <use xlink:href="#DejaVuSans-34" x="95.410156"/>
      </g>
     </g>
    </g>
    <g id="ytick_6">
     <g id="line2d_14">
      <g>
       <use xlink:href="#m72b1119681" x="47.72" y="245.215961" style="stroke: #000000; stroke-width: 0.8"/>
      </g>
     </g>
     <g id="text_15">
      <!-- 0.5 -->
      <g transform="translate(24.816875 249.01518) scale(0.1 -0.1)">
       <use xlink:href="#DejaVuSans-30"/>
       <use xlink:href="#DejaVuSans-2e" x="63.623047"/>
       <use xlink:href="#DejaVuSans-35" x="95.410156"/>
      </g>
     </g>
    </g>
    <g id="ytick_7">
     <g id="line2d_15">
      <g>
       <use xlink:href="#m72b1119681" x="47.72" y="205.483741" style="stroke: #000000; stroke-width: 0.8"/>
      </g>
     </g>
     <g id="text_16">
      <!-- 0.6 -->
      <g transform="translate(24.816875 209.28296) scale(0.1 -0.1)">
       <use xlink:href="#DejaVuSans-30"/>
       <use xlink:href="#DejaVuSans-2e" x="63.623047"/>
       <use xlink:href="#DejaVuSans-36" x="95.410156"/>
      </g>
     </g>
    </g>
    <g id="ytick_8">
     <g id="line2d_16">
      <g>
       <use xlink:href="#m72b1119681" x="47.72" y="165.751521" style="stroke: #000000; stroke-width: 0.8"/>
      </g>
     </g>
     <g id="text_17">
      <!-- 0.7 -->
      <g transform="translate(24.816875 169.550739) scale(0.1 -0.1)">
       <defs>
        <path id="DejaVuSans-37" d="M 525 4666 
L 3525 4666 
L 3525 4397 
L 1831 0 
L 1172 0 
L 2766 4134 
L 525 4134 
L 525 4666 
z
" transform="scale(0.015625)"/>
       </defs>
       <use xlink:href="#DejaVuSans-30"/>
       <use xlink:href="#DejaVuSans-2e" x="63.623047"/>
       <use xlink:href="#DejaVuSans-37" x="95.410156"/>
      </g>
     </g>
    </g>
    <g id="ytick_9">
     <g id="line2d_17">
      <g>
       <use xlink:href="#m72b1119681" x="47.72" y="126.0193" style="stroke: #000000; stroke-width: 0.8"/>
      </g>
     </g>
     <g id="text_18">
      <!-- 0.8 -->
      <g transform="translate(24.816875 129.818519) scale(0.1 -0.1)">
       <defs>
        <path id="DejaVuSans-38" d="M 2034 2216 
Q 1584 2216 1326 1975 
Q 1069 1734 1069 1313 
Q 1069 891 1326 650 
Q 1584 409 2034 409 
Q 2484 409 2743 651 
Q 3003 894 3003 1313 
Q 3003 1734 2745 1975 
Q 2488 2216 2034 2216 
z
M 1403 2484 
Q 997 2584 770 2862 
Q 544 3141 544 3541 
Q 544 4100 942 4425 
Q 1341 4750 2034 4750 
Q 2731 4750 3128 4425 
Q 3525 4100 3525 3541 
Q 3525 3141 3298 2862 
Q 3072 2584 2669 2484 
Q 3125 2378 3379 2068 
Q 3634 1759 3634 1313 
Q 3634 634 3220 271 
Q 2806 -91 2034 -91 
Q 1263 -91 848 271 
Q 434 634 434 1313 
Q 434 1759 690 2068 
Q 947 2378 1403 2484 
z
M 1172 3481 
Q 1172 3119 1398 2916 
Q 1625 2713 2034 2713 
Q 2441 2713 2670 2916 
Q 2900 3119 2900 3481 
Q 2900 3844 2670 4047 
Q 2441 4250 2034 4250 
Q 1625 4250 1398 4047 
Q 1172 3844 1172 3481 
z
" transform="scale(0.015625)"/>
       </defs>
       <use xlink:href="#DejaVuSans-30"/>
       <use xlink:href="#DejaVuSans-2e" x="63.623047"/>
       <use xlink:href="#DejaVuSans-38" x="95.410156"/>
      </g>
     </g>
    </g>
    <g id="ytick_10">
     <g id="line2d_18">
      <g>
       <use xlink:href="#m72b1119681" x="47.72" y="86.28708" style="stroke: #000000; stroke-width: 0.8"/>
      </g>
     </g>
     <g id="text_19">
      <!-- 0.9 -->
      <g transform="translate(24.816875 90.086299) scale(0.1 -0.1)">
       <defs>
        <path id="DejaVuSans-39" d="M 703 97 
L 703 672 
Q 941 559 1184 500 
Q 1428 441 1663 441 
Q 2288 441 2617 861 
Q 2947 1281 2994 2138 
Q 2813 1869 2534 1725 
Q 2256 1581 1919 1581 
Q 1219 1581 811 2004 
Q 403 2428 403 3163 
Q 403 3881 828 4315 
Q 1253 4750 1959 4750 
Q 2769 4750 3195 4129 
Q 3622 3509 3622 2328 
Q 3622 1225 3098 567 
Q 2575 -91 1691 -91 
Q 1453 -91 1209 -44 
Q 966 3 703 97 
z
M 1959 2075 
Q 2384 2075 2632 2365 
Q 2881 2656 2881 3163 
Q 2881 3666 2632 3958 
Q 2384 4250 1959 4250 
Q 1534 4250 1286 3958 
Q 1038 3666 1038 3163 
Q 1038 2656 1286 2365 
Q 1534 2075 1959 2075 
z
" transform="scale(0.015625)"/>
       </defs>
       <use xlink:href="#DejaVuSans-30"/>
       <use xlink:href="#DejaVuSans-2e" x="63.623047"/>
       <use xlink:href="#DejaVuSans-39" x="95.410156"/>
      </g>
     </g>
    </g>
    <g id="ytick_11">
     <g id="line2d_19">
      <g>
       <use xlink:href="#m72b1119681" x="47.72" y="46.55486" style="stroke: #000000; stroke-width: 0.8"/>
      </g>
     </g>
     <g id="text_20">
      <!-- 1.0 -->
      <g transform="translate(24.816875 50.354079) scale(0.1 -0.1)">
       <use xlink:href="#DejaVuSans-31"/>
       <use xlink:href="#DejaVuSans-2e" x="63.623047"/>
       <use xlink:href="#DejaVuSans-30" x="95.410156"/>
      </g>
     </g>
    </g>
    <g id="text_21">
     <!-- % of students -->
     <g transform="translate(18.737188 279.682367) rotate(-90) scale(0.1 -0.1)">
      <defs>
       <path id="DejaVuSans-25" d="M 4653 2053 
Q 4381 2053 4226 1822 
Q 4072 1591 4072 1178 
Q 4072 772 4226 539 
Q 4381 306 4653 306 
Q 4919 306 5073 539 
Q 5228 772 5228 1178 
Q 5228 1588 5073 1820 
Q 4919 2053 4653 2053 
z
M 4653 2450 
Q 5147 2450 5437 2106 
Q 5728 1763 5728 1178 
Q 5728 594 5436 251 
Q 5144 -91 4653 -91 
Q 4153 -91 3862 251 
Q 3572 594 3572 1178 
Q 3572 1766 3864 2108 
Q 4156 2450 4653 2450 
z
M 1428 4353 
Q 1159 4353 1004 4120 
Q 850 3888 850 3481 
Q 850 3069 1003 2837 
Q 1156 2606 1428 2606 
Q 1700 2606 1854 2837 
Q 2009 3069 2009 3481 
Q 2009 3884 1853 4118 
Q 1697 4353 1428 4353 
z
M 4250 4750 
L 4750 4750 
L 1831 -91 
L 1331 -91 
L 4250 4750 
z
M 1428 4750 
Q 1922 4750 2215 4408 
Q 2509 4066 2509 3481 
Q 2509 2891 2217 2550 
Q 1925 2209 1428 2209 
Q 931 2209 642 2551 
Q 353 2894 353 3481 
Q 353 4063 643 4406 
Q 934 4750 1428 4750 
z
" transform="scale(0.015625)"/>
       <path id="DejaVuSans-20" transform="scale(0.015625)"/>
       <path id="DejaVuSans-66" d="M 2375 4863 
L 2375 4384 
L 1825 4384 
Q 1516 4384 1395 4259 
Q 1275 4134 1275 3809 
L 1275 3500 
L 2222 3500 
L 2222 3053 
L 1275 3053 
L 1275 0 
L 697 0 
L 697 3053 
L 147 3053 
L 147 3500 
L 697 3500 
L 697 3744 
Q 697 4328 969 4595 
Q 1241 4863 1831 4863 
L 2375 4863 
z
" transform="scale(0.015625)"/>
       <path id="DejaVuSans-73" d="M 2834 3397 
L 2834 2853 
Q 2591 2978 2328 3040 
Q 2066 3103 1784 3103 
Q 1356 3103 1142 2972 
Q 928 2841 928 2578 
Q 928 2378 1081 2264 
Q 1234 2150 1697 2047 
L 1894 2003 
Q 2506 1872 2764 1633 
Q 3022 1394 3022 966 
Q 3022 478 2636 193 
Q 2250 -91 1575 -91 
Q 1294 -91 989 -36 
Q 684 19 347 128 
L 347 722 
Q 666 556 975 473 
Q 1284 391 1588 391 
Q 1994 391 2212 530 
Q 2431 669 2431 922 
Q 2431 1156 2273 1281 
Q 2116 1406 1581 1522 
L 1381 1569 
Q 847 1681 609 1914 
Q 372 2147 372 2553 
Q 372 3047 722 3315 
Q 1072 3584 1716 3584 
Q 2034 3584 2315 3537 
Q 2597 3491 2834 3397 
z
" transform="scale(0.015625)"/>
       <path id="DejaVuSans-75" d="M 544 1381 
L 544 3500 
L 1119 3500 
L 1119 1403 
Q 1119 906 1312 657 
Q 1506 409 1894 409 
Q 2359 409 2629 706 
Q 2900 1003 2900 1516 
L 2900 3500 
L 3475 3500 
L 3475 0 
L 2900 0 
L 2900 538 
Q 2691 219 2414 64 
Q 2138 -91 1772 -91 
Q 1169 -91 856 284 
Q 544 659 544 1381 
z
M 1991 3584 
L 1991 3584 
z
" transform="scale(0.015625)"/>
       <path id="DejaVuSans-64" d="M 2906 2969 
L 2906 4863 
L 3481 4863 
L 3481 0 
L 2906 0 
L 2906 525 
Q 2725 213 2448 61 
Q 2172 -91 1784 -91 
Q 1150 -91 751 415 
Q 353 922 353 1747 
Q 353 2572 751 3078 
Q 1150 3584 1784 3584 
Q 2172 3584 2448 3432 
Q 2725 3281 2906 2969 
z
M 947 1747 
Q 947 1113 1208 752 
Q 1469 391 1925 391 
Q 2381 391 2643 752 
Q 2906 1113 2906 1747 
Q 2906 2381 2643 2742 
Q 2381 3103 1925 3103 
Q 1469 3103 1208 2742 
Q 947 2381 947 1747 
z
" transform="scale(0.015625)"/>
       <path id="DejaVuSans-6e" d="M 3513 2113 
L 3513 0 
L 2938 0 
L 2938 2094 
Q 2938 2591 2744 2837 
Q 2550 3084 2163 3084 
Q 1697 3084 1428 2787 
Q 1159 2491 1159 1978 
L 1159 0 
L 581 0 
L 581 3500 
L 1159 3500 
L 1159 2956 
Q 1366 3272 1645 3428 
Q 1925 3584 2291 3584 
Q 2894 3584 3203 3211 
Q 3513 2838 3513 2113 
z
" transform="scale(0.015625)"/>
      </defs>
      <use xlink:href="#DejaVuSans-25"/>
      <use xlink:href="#DejaVuSans-20" x="95.019531"/>
      <use xlink:href="#DejaVuSans-6f" x="126.806641"/>
      <use xlink:href="#DejaVuSans-66" x="187.988281"/>
      <use xlink:href="#DejaVuSans-20" x="223.193359"/>
      <use xlink:href="#DejaVuSans-73" x="254.980469"/>
      <use xlink:href="#DejaVuSans-74" x="307.080078"/>
      <use xlink:href="#DejaVuSans-75" x="346.289062"/>
      <use xlink:href="#DejaVuSans-64" x="409.667969"/>
      <use xlink:href="#DejaVuSans-65" x="473.144531"/>
      <use xlink:href="#DejaVuSans-6e" x="534.667969"/>
      <use xlink:href="#DejaVuSans-74" x="598.046875"/>
      <use xlink:href="#DejaVuSans-73" x="637.255859"/>
     </g>
    </g>
   </g>
   <g id="line2d_20">
    <path d="M 63.630938 331.26026 
L 95.452813 246.129345 
L 127.274688 258.68451 
L 159.096563 303.158782 
L 190.918438 164.162232 
L 222.740313 282.699188 
L 254.562188 291.90981 
L 286.384063 362.790898 
L 318.205938 384.786415 
L 350.027813 253.518216 
L 381.849688 285.661934 
L 413.671563 357.235444 
L 445.493438 213.582028 
L 477.315313 328.815429 
L 509.137188 326.2234 
L 540.959063 406.82519 
" clip-path="url(#pb657abc713)" style="fill: none; stroke: #2ca02c; stroke-width: 3; stroke-linecap: square"/>
   </g>
   <g id="line2d_21">
    <path d="M 63.630938 356.778299 
L 95.452813 411.908609 
L 127.274688 394.632679 
L 159.096563 414.17528 
L 190.918438 421.627019 
L 222.740313 382.654459 
L 254.562188 378.505674 
L 286.384063 330.356433 
L 318.205938 324.840064 
L 350.027813 429.644625 
L 381.849688 437.929125 
L 413.671563 368.933054 
L 445.493438 443.877062 
L 477.315313 392.339039 
L 509.137188 414.302918 
L 540.959063 315.378017 
" clip-path="url(#pb657abc713)" style="fill: none; stroke: #1f77b4; stroke-width: 3; stroke-linecap: square"/>
   </g>
   <g id="line2d_22">
    <path d="M 63.630938 376.813124 
L 95.452813 331.987476 
L 127.274688 377.3761 
L 159.096563 395.67253 
L 190.918438 383.484087 
L 222.740313 370.16005 
L 254.562188 400.57913 
L 286.384063 379.008131 
L 318.205938 412.978249 
L 350.027813 258.262362 
L 381.849688 321.349557 
L 413.671563 373.294875 
L 445.493438 326.19883 
L 477.315313 358.180117 
L 509.137188 388.58627 
L 540.959063 438.358698 
" clip-path="url(#pb657abc713)" style="fill: none; stroke: #d62728; stroke-width: 3; stroke-linecap: square"/>
   </g>
   <g id="line2d_23">
    <path d="M 63.630938 315.2324 
L 95.452813 388.160615 
L 127.274688 347.913649 
L 159.096563 364.510005 
L 190.918438 411.03176 
L 222.740313 350.168996 
L 254.562188 307.191433 
L 286.384063 306.030584 
L 318.205938 255.581318 
L 350.027813 439.132916 
L 381.849688 434.360363 
L 413.671563 367.148673 
L 445.493438 443.877062 
L 477.315313 400.12967 
L 509.137188 411.088337 
L 540.959063 305.129626 
" clip-path="url(#pb657abc713)" style="fill: none; stroke: #ff7f0e; stroke-width: 3; stroke-linecap: square"/>
   </g>
   <g id="line2d_24">
    <path d="M 63.630938 441.979026 
L 95.452813 443.877062 
L 127.274688 443.45617 
L 159.096563 344.546512 
L 190.918438 441.75801 
L 222.740313 436.380417 
L 254.562188 443.877062 
L 286.384063 443.877062 
L 318.205938 443.877062 
L 350.027813 441.504989 
L 381.849688 342.76213 
L 413.671563 355.451063 
L 445.493438 394.528126 
L 477.315313 342.598854 
L 509.137188 281.862184 
L 540.959063 356.371577 
" clip-path="url(#pb657abc713)" style="fill: none; stroke: #bfbfbf; stroke-width: 3; stroke-linecap: square"/>
   </g>
   <g id="line2d_25">
    <path d="M 63.630938 244.553757 
L 95.452813 214.754592 
L 127.274688 208.463657 
L 159.096563 274.021821 
L 190.918438 141.912189 
L 222.740313 221.376629 
L 254.562188 226.343156 
L 286.384063 249.189183 
L 318.205938 265.365873 
L 350.027813 239.256128 
L 381.849688 280.974959 
L 413.671563 282.299367 
L 445.493438 213.430185 
L 477.315313 277.001737 
L 509.137188 296.867847 
L 540.959063 278.136944 
" clip-path="url(#pb657abc713)" style="fill: none; stroke: #aa4371; stroke-width: 3; stroke-linecap: square"/>
   </g>
   <g id="line2d_26">
    <path d="M 63.630938 259.122238 
L 95.452813 133.965745 
L 127.274688 182.637714 
L 159.096563 189.590853 
L 190.918438 88.671014 
L 222.740313 193.564075 
L 254.562188 234.289601 
L 286.384063 296.867847 
L 318.205938 348.235932 
L 350.027813 56.487915 
L 381.849688 70.394192 
L 413.671563 236.607313 
L 445.493438 46.55486 
L 477.315313 156.480669 
L 509.137188 133.965745 
L 540.959063 361.007003 
" clip-path="url(#pb657abc713)" style="fill: none; stroke: #ccff00; stroke-width: 3; stroke-linecap: square"/>
   </g>
   <g id="line2d_27">
    <path d="M 63.630938 192.239667 
L 95.452813 189.590853 
L 127.274688 144.892105 
L 159.096563 144.892105 
L 190.918438 117.278212 
L 222.740313 168.400335 
L 254.562188 130.985828 
L 286.384063 262.102155 
L 318.205938 142.763593 
L 350.027813 241.242739 
L 381.849688 221.376629 
L 413.671563 188.928649 
L 445.493438 181.644409 
L 477.315313 216.079 
L 509.137188 172.373557 
L 540.959063 126.586904 
" clip-path="url(#pb657abc713)" style="fill: none; stroke: #eab64e; stroke-width: 3; stroke-linecap: square"/>
   </g>
   <g id="patch_3">
    <path d="M 47.72 463.743172 
L 47.72 26.68875 
" style="fill: none; stroke: #000000; stroke-width: 0.8; stroke-linejoin: miter; stroke-linecap: square"/>
   </g>
   <g id="patch_4">
    <path d="M 556.87 463.743172 
L 556.87 26.68875 
" style="fill: none; stroke: #000000; stroke-width: 0.8; stroke-linejoin: miter; stroke-linecap: square"/>
   </g>
   <g id="patch_5">
    <path d="M 47.72 463.743172 
L 556.87 463.743172 
" style="fill: none; stroke: #000000; stroke-width: 0.8; stroke-linejoin: miter; stroke-linecap: square"/>
   </g>
   <g id="patch_6">
    <path d="M 47.72 26.68875 
L 556.87 26.68875 
" style="fill: none; stroke: #000000; stroke-width: 0.8; stroke-linejoin: miter; stroke-linecap: square"/>
   </g>
   <g id="text_22">
    <!-- GDI_2021_DO -->
    <g transform="translate(47.72 20.68875) scale(0.12 -0.12)">
     <defs>
      <path id="DejaVuSans-4f" d="M 2522 4238 
Q 1834 4238 1429 3725 
Q 1025 3213 1025 2328 
Q 1025 1447 1429 934 
Q 1834 422 2522 422 
Q 3209 422 3611 934 
Q 4013 1447 4013 2328 
Q 4013 3213 3611 3725 
Q 3209 4238 2522 4238 
z
M 2522 4750 
Q 3503 4750 4090 4092 
Q 4678 3434 4678 2328 
Q 4678 1225 4090 567 
Q 3503 -91 2522 -91 
Q 1538 -91 948 565 
Q 359 1222 359 2328 
Q 359 3434 948 4092 
Q 1538 4750 2522 4750 
z
" transform="scale(0.015625)"/>
     </defs>
     <use xlink:href="#DejaVuSans-47"/>
     <use xlink:href="#DejaVuSans-44" x="77.490234"/>
     <use xlink:href="#DejaVuSans-49" x="154.492188"/>
     <use xlink:href="#DejaVuSans-5f" x="183.984375"/>
     <use xlink:href="#DejaVuSans-32" x="233.984375"/>
     <use xlink:href="#DejaVuSans-30" x="297.607422"/>
     <use xlink:href="#DejaVuSans-32" x="361.230469"/>
     <use xlink:href="#DejaVuSans-31" x="424.853516"/>
     <use xlink:href="#DejaVuSans-5f" x="488.476562"/>
     <use xlink:href="#DejaVuSans-44" x="538.476562"/>
     <use xlink:href="#DejaVuSans-4f" x="615.478516"/>
    </g>
   </g>
   <g id="legend_1">
    <g id="patch_7">
     <path d="M 563.87 305.428461 
L 779.2075 305.428461 
Q 781.2075 305.428461 781.2075 303.428461 
L 781.2075 187.003461 
Q 781.2075 185.003461 779.2075 185.003461 
L 563.87 185.003461 
Q 561.87 185.003461 561.87 187.003461 
L 561.87 303.428461 
Q 561.87 305.428461 563.87 305.428461 
z
" style="fill: #ffffff; opacity: 0.8; stroke: #cccccc; stroke-linejoin: miter"/>
    </g>
    <g id="line2d_28">
     <path d="M 565.87 193.101899 
L 575.87 193.101899 
L 585.87 193.101899 
" style="fill: none; stroke: #2ca02c; stroke-width: 3; stroke-linecap: square"/>
    </g>
    <g id="text_23">
     <!-- True Positives (Presentation Score) -->
     <g transform="translate(593.87 196.601899) scale(0.1 -0.1)">
      <defs>
       <path id="DejaVuSans-54" d="M -19 4666 
L 3928 4666 
L 3928 4134 
L 2272 4134 
L 2272 0 
L 1638 0 
L 1638 4134 
L -19 4134 
L -19 4666 
z
" transform="scale(0.015625)"/>
       <path id="DejaVuSans-69" d="M 603 3500 
L 1178 3500 
L 1178 0 
L 603 0 
L 603 3500 
z
M 603 4863 
L 1178 4863 
L 1178 4134 
L 603 4134 
L 603 4863 
z
" transform="scale(0.015625)"/>
       <path id="DejaVuSans-76" d="M 191 3500 
L 800 3500 
L 1894 563 
L 2988 3500 
L 3597 3500 
L 2284 0 
L 1503 0 
L 191 3500 
z
" transform="scale(0.015625)"/>
       <path id="DejaVuSans-28" d="M 1984 4856 
Q 1566 4138 1362 3434 
Q 1159 2731 1159 2009 
Q 1159 1288 1364 580 
Q 1569 -128 1984 -844 
L 1484 -844 
Q 1016 -109 783 600 
Q 550 1309 550 2009 
Q 550 2706 781 3412 
Q 1013 4119 1484 4856 
L 1984 4856 
z
" transform="scale(0.015625)"/>
       <path id="DejaVuSans-61" d="M 2194 1759 
Q 1497 1759 1228 1600 
Q 959 1441 959 1056 
Q 959 750 1161 570 
Q 1363 391 1709 391 
Q 2188 391 2477 730 
Q 2766 1069 2766 1631 
L 2766 1759 
L 2194 1759 
z
M 3341 1997 
L 3341 0 
L 2766 0 
L 2766 531 
Q 2569 213 2275 61 
Q 1981 -91 1556 -91 
Q 1019 -91 701 211 
Q 384 513 384 1019 
Q 384 1609 779 1909 
Q 1175 2209 1959 2209 
L 2766 2209 
L 2766 2266 
Q 2766 2663 2505 2880 
Q 2244 3097 1772 3097 
Q 1472 3097 1187 3025 
Q 903 2953 641 2809 
L 641 3341 
Q 956 3463 1253 3523 
Q 1550 3584 1831 3584 
Q 2591 3584 2966 3190 
Q 3341 2797 3341 1997 
z
" transform="scale(0.015625)"/>
       <path id="DejaVuSans-29" d="M 513 4856 
L 1013 4856 
Q 1481 4119 1714 3412 
Q 1947 2706 1947 2009 
Q 1947 1309 1714 600 
Q 1481 -109 1013 -844 
L 513 -844 
Q 928 -128 1133 580 
Q 1338 1288 1338 2009 
Q 1338 2731 1133 3434 
Q 928 4138 513 4856 
z
" transform="scale(0.015625)"/>
      </defs>
      <use xlink:href="#DejaVuSans-54"/>
      <use xlink:href="#DejaVuSans-72" x="46.333984"/>
      <use xlink:href="#DejaVuSans-75" x="87.447266"/>
      <use xlink:href="#DejaVuSans-65" x="150.826172"/>
      <use xlink:href="#DejaVuSans-20" x="212.349609"/>
      <use xlink:href="#DejaVuSans-50" x="244.136719"/>
      <use xlink:href="#DejaVuSans-6f" x="300.814453"/>
      <use xlink:href="#DejaVuSans-73" x="361.996094"/>
      <use xlink:href="#DejaVuSans-69" x="414.095703"/>
      <use xlink:href="#DejaVuSans-74" x="441.878906"/>
      <use xlink:href="#DejaVuSans-69" x="481.087891"/>
      <use xlink:href="#DejaVuSans-76" x="508.871094"/>
      <use xlink:href="#DejaVuSans-65" x="568.050781"/>
      <use xlink:href="#DejaVuSans-73" x="629.574219"/>
      <use xlink:href="#DejaVuSans-20" x="681.673828"/>
      <use xlink:href="#DejaVuSans-28" x="713.460938"/>
      <use xlink:href="#DejaVuSans-50" x="752.474609"/>
      <use xlink:href="#DejaVuSans-72" x="811.027344"/>
      <use xlink:href="#DejaVuSans-65" x="849.890625"/>
      <use xlink:href="#DejaVuSans-73" x="911.414062"/>
      <use xlink:href="#DejaVuSans-65" x="963.513672"/>
      <use xlink:href="#DejaVuSans-6e" x="1025.037109"/>
      <use xlink:href="#DejaVuSans-74" x="1088.416016"/>
      <use xlink:href="#DejaVuSans-61" x="1127.625"/>
      <use xlink:href="#DejaVuSans-74" x="1188.904297"/>
      <use xlink:href="#DejaVuSans-69" x="1228.113281"/>
      <use xlink:href="#DejaVuSans-6f" x="1255.896484"/>
      <use xlink:href="#DejaVuSans-6e" x="1317.078125"/>
      <use xlink:href="#DejaVuSans-20" x="1380.457031"/>
      <use xlink:href="#DejaVuSans-53" x="1412.244141"/>
      <use xlink:href="#DejaVuSans-63" x="1475.720703"/>
      <use xlink:href="#DejaVuSans-6f" x="1530.701172"/>
      <use xlink:href="#DejaVuSans-72" x="1591.882812"/>
      <use xlink:href="#DejaVuSans-65" x="1630.746094"/>
      <use xlink:href="#DejaVuSans-29" x="1692.269531"/>
     </g>
    </g>
    <g id="line2d_29">
     <path d="M 565.87 207.780024 
L 575.87 207.780024 
L 585.87 207.780024 
" style="fill: none; stroke: #1f77b4; stroke-width: 3; stroke-linecap: square"/>
    </g>
    <g id="text_24">
     <!-- True Negatives (Presentation Score) -->
     <g transform="translate(593.87 211.280024) scale(0.1 -0.1)">
      <defs>
       <path id="DejaVuSans-4e" d="M 628 4666 
L 1478 4666 
L 3547 763 
L 3547 4666 
L 4159 4666 
L 4159 0 
L 3309 0 
L 1241 3903 
L 1241 0 
L 628 0 
L 628 4666 
z
" transform="scale(0.015625)"/>
       <path id="DejaVuSans-67" d="M 2906 1791 
Q 2906 2416 2648 2759 
Q 2391 3103 1925 3103 
Q 1463 3103 1205 2759 
Q 947 2416 947 1791 
Q 947 1169 1205 825 
Q 1463 481 1925 481 
Q 2391 481 2648 825 
Q 2906 1169 2906 1791 
z
M 3481 434 
Q 3481 -459 3084 -895 
Q 2688 -1331 1869 -1331 
Q 1566 -1331 1297 -1286 
Q 1028 -1241 775 -1147 
L 775 -588 
Q 1028 -725 1275 -790 
Q 1522 -856 1778 -856 
Q 2344 -856 2625 -561 
Q 2906 -266 2906 331 
L 2906 616 
Q 2728 306 2450 153 
Q 2172 0 1784 0 
Q 1141 0 747 490 
Q 353 981 353 1791 
Q 353 2603 747 3093 
Q 1141 3584 1784 3584 
Q 2172 3584 2450 3431 
Q 2728 3278 2906 2969 
L 2906 3500 
L 3481 3500 
L 3481 434 
z
" transform="scale(0.015625)"/>
      </defs>
      <use xlink:href="#DejaVuSans-54"/>
      <use xlink:href="#DejaVuSans-72" x="46.333984"/>
      <use xlink:href="#DejaVuSans-75" x="87.447266"/>
      <use xlink:href="#DejaVuSans-65" x="150.826172"/>
      <use xlink:href="#DejaVuSans-20" x="212.349609"/>
      <use xlink:href="#DejaVuSans-4e" x="244.136719"/>
      <use xlink:href="#DejaVuSans-65" x="318.941406"/>
      <use xlink:href="#DejaVuSans-67" x="380.464844"/>
      <use xlink:href="#DejaVuSans-61" x="443.941406"/>
      <use xlink:href="#DejaVuSans-74" x="505.220703"/>
      <use xlink:href="#DejaVuSans-69" x="544.429688"/>
      <use xlink:href="#DejaVuSans-76" x="572.212891"/>
      <use xlink:href="#DejaVuSans-65" x="631.392578"/>
      <use xlink:href="#DejaVuSans-73" x="692.916016"/>
      <use xlink:href="#DejaVuSans-20" x="745.015625"/>
      <use xlink:href="#DejaVuSans-28" x="776.802734"/>
      <use xlink:href="#DejaVuSans-50" x="815.816406"/>
      <use xlink:href="#DejaVuSans-72" x="874.369141"/>
      <use xlink:href="#DejaVuSans-65" x="913.232422"/>
      <use xlink:href="#DejaVuSans-73" x="974.755859"/>
      <use xlink:href="#DejaVuSans-65" x="1026.855469"/>
      <use xlink:href="#DejaVuSans-6e" x="1088.378906"/>
      <use xlink:href="#DejaVuSans-74" x="1151.757812"/>
      <use xlink:href="#DejaVuSans-61" x="1190.966797"/>
      <use xlink:href="#DejaVuSans-74" x="1252.246094"/>
      <use xlink:href="#DejaVuSans-69" x="1291.455078"/>
      <use xlink:href="#DejaVuSans-6f" x="1319.238281"/>
      <use xlink:href="#DejaVuSans-6e" x="1380.419922"/>
      <use xlink:href="#DejaVuSans-20" x="1443.798828"/>
      <use xlink:href="#DejaVuSans-53" x="1475.585938"/>
      <use xlink:href="#DejaVuSans-63" x="1539.0625"/>
      <use xlink:href="#DejaVuSans-6f" x="1594.042969"/>
      <use xlink:href="#DejaVuSans-72" x="1655.224609"/>
      <use xlink:href="#DejaVuSans-65" x="1694.087891"/>
      <use xlink:href="#DejaVuSans-29" x="1755.611328"/>
     </g>
    </g>
    <g id="line2d_30">
     <path d="M 565.87 222.458149 
L 575.87 222.458149 
L 585.87 222.458149 
" style="fill: none; stroke: #d62728; stroke-width: 3; stroke-linecap: square"/>
    </g>
    <g id="text_25">
     <!-- False Positives (Presentation Score) -->
     <g transform="translate(593.87 225.958149) scale(0.1 -0.1)">
      <defs>
       <path id="DejaVuSans-46" d="M 628 4666 
L 3309 4666 
L 3309 4134 
L 1259 4134 
L 1259 2759 
L 3109 2759 
L 3109 2228 
L 1259 2228 
L 1259 0 
L 628 0 
L 628 4666 
z
" transform="scale(0.015625)"/>
       <path id="DejaVuSans-6c" d="M 603 4863 
L 1178 4863 
L 1178 0 
L 603 0 
L 603 4863 
z
" transform="scale(0.015625)"/>
      </defs>
      <use xlink:href="#DejaVuSans-46"/>
      <use xlink:href="#DejaVuSans-61" x="48.394531"/>
      <use xlink:href="#DejaVuSans-6c" x="109.673828"/>
      <use xlink:href="#DejaVuSans-73" x="137.457031"/>
      <use xlink:href="#DejaVuSans-65" x="189.556641"/>
      <use xlink:href="#DejaVuSans-20" x="251.080078"/>
      <use xlink:href="#DejaVuSans-50" x="282.867188"/>
      <use xlink:href="#DejaVuSans-6f" x="339.544922"/>
      <use xlink:href="#DejaVuSans-73" x="400.726562"/>
      <use xlink:href="#DejaVuSans-69" x="452.826172"/>
      <use xlink:href="#DejaVuSans-74" x="480.609375"/>
      <use xlink:href="#DejaVuSans-69" x="519.818359"/>
      <use xlink:href="#DejaVuSans-76" x="547.601562"/>
      <use xlink:href="#DejaVuSans-65" x="606.78125"/>
      <use xlink:href="#DejaVuSans-73" x="668.304688"/>
      <use xlink:href="#DejaVuSans-20" x="720.404297"/>
      <use xlink:href="#DejaVuSans-28" x="752.191406"/>
      <use xlink:href="#DejaVuSans-50" x="791.205078"/>
      <use xlink:href="#DejaVuSans-72" x="849.757812"/>
      <use xlink:href="#DejaVuSans-65" x="888.621094"/>
      <use xlink:href="#DejaVuSans-73" x="950.144531"/>
      <use xlink:href="#DejaVuSans-65" x="1002.244141"/>
      <use xlink:href="#DejaVuSans-6e" x="1063.767578"/>
      <use xlink:href="#DejaVuSans-74" x="1127.146484"/>
      <use xlink:href="#DejaVuSans-61" x="1166.355469"/>
      <use xlink:href="#DejaVuSans-74" x="1227.634766"/>
      <use xlink:href="#DejaVuSans-69" x="1266.84375"/>
      <use xlink:href="#DejaVuSans-6f" x="1294.626953"/>
      <use xlink:href="#DejaVuSans-6e" x="1355.808594"/>
      <use xlink:href="#DejaVuSans-20" x="1419.1875"/>
      <use xlink:href="#DejaVuSans-53" x="1450.974609"/>
      <use xlink:href="#DejaVuSans-63" x="1514.451172"/>
      <use xlink:href="#DejaVuSans-6f" x="1569.431641"/>
      <use xlink:href="#DejaVuSans-72" x="1630.613281"/>
      <use xlink:href="#DejaVuSans-65" x="1669.476562"/>
      <use xlink:href="#DejaVuSans-29" x="1731"/>
     </g>
    </g>
    <g id="line2d_31">
     <path d="M 565.87 237.136274 
L 575.87 237.136274 
L 585.87 237.136274 
" style="fill: none; stroke: #ff7f0e; stroke-width: 3; stroke-linecap: square"/>
    </g>
    <g id="text_26">
     <!-- False Negatives (Presentation Score) -->
     <g transform="translate(593.87 240.636274) scale(0.1 -0.1)">
      <use xlink:href="#DejaVuSans-46"/>
      <use xlink:href="#DejaVuSans-61" x="48.394531"/>
      <use xlink:href="#DejaVuSans-6c" x="109.673828"/>
      <use xlink:href="#DejaVuSans-73" x="137.457031"/>
      <use xlink:href="#DejaVuSans-65" x="189.556641"/>
      <use xlink:href="#DejaVuSans-20" x="251.080078"/>
      <use xlink:href="#DejaVuSans-4e" x="282.867188"/>
      <use xlink:href="#DejaVuSans-65" x="357.671875"/>
      <use xlink:href="#DejaVuSans-67" x="419.195312"/>
      <use xlink:href="#DejaVuSans-61" x="482.671875"/>
      <use xlink:href="#DejaVuSans-74" x="543.951172"/>
      <use xlink:href="#DejaVuSans-69" x="583.160156"/>
      <use xlink:href="#DejaVuSans-76" x="610.943359"/>
      <use xlink:href="#DejaVuSans-65" x="670.123047"/>
      <use xlink:href="#DejaVuSans-73" x="731.646484"/>
      <use xlink:href="#DejaVuSans-20" x="783.746094"/>
      <use xlink:href="#DejaVuSans-28" x="815.533203"/>
      <use xlink:href="#DejaVuSans-50" x="854.546875"/>
      <use xlink:href="#DejaVuSans-72" x="913.099609"/>
      <use xlink:href="#DejaVuSans-65" x="951.962891"/>
      <use xlink:href="#DejaVuSans-73" x="1013.486328"/>
      <use xlink:href="#DejaVuSans-65" x="1065.585938"/>
      <use xlink:href="#DejaVuSans-6e" x="1127.109375"/>
      <use xlink:href="#DejaVuSans-74" x="1190.488281"/>
      <use xlink:href="#DejaVuSans-61" x="1229.697266"/>
      <use xlink:href="#DejaVuSans-74" x="1290.976562"/>
      <use xlink:href="#DejaVuSans-69" x="1330.185547"/>
      <use xlink:href="#DejaVuSans-6f" x="1357.96875"/>
      <use xlink:href="#DejaVuSans-6e" x="1419.150391"/>
      <use xlink:href="#DejaVuSans-20" x="1482.529297"/>
      <use xlink:href="#DejaVuSans-53" x="1514.316406"/>
      <use xlink:href="#DejaVuSans-63" x="1577.792969"/>
      <use xlink:href="#DejaVuSans-6f" x="1632.773438"/>
      <use xlink:href="#DejaVuSans-72" x="1693.955078"/>
      <use xlink:href="#DejaVuSans-65" x="1732.818359"/>
      <use xlink:href="#DejaVuSans-29" x="1794.341797"/>
     </g>
    </g>
    <g id="line2d_32">
     <path d="M 565.87 251.814399 
L 575.87 251.814399 
L 585.87 251.814399 
" style="fill: none; stroke: #bfbfbf; stroke-width: 3; stroke-linecap: square"/>
    </g>
    <g id="text_27">
     <!-- Errors -->
     <g transform="translate(593.87 255.314399) scale(0.1 -0.1)">
      <defs>
       <path id="DejaVuSans-45" d="M 628 4666 
L 3578 4666 
L 3578 4134 
L 1259 4134 
L 1259 2753 
L 3481 2753 
L 3481 2222 
L 1259 2222 
L 1259 531 
L 3634 531 
L 3634 0 
L 628 0 
L 628 4666 
z
" transform="scale(0.015625)"/>
      </defs>
      <use xlink:href="#DejaVuSans-45"/>
      <use xlink:href="#DejaVuSans-72" x="63.183594"/>
      <use xlink:href="#DejaVuSans-72" x="102.546875"/>
      <use xlink:href="#DejaVuSans-6f" x="141.410156"/>
      <use xlink:href="#DejaVuSans-72" x="202.591797"/>
      <use xlink:href="#DejaVuSans-73" x="243.705078"/>
     </g>
    </g>
    <g id="line2d_33">
     <path d="M 565.87 266.492524 
L 575.87 266.492524 
L 585.87 266.492524 
" style="fill: none; stroke: #aa4371; stroke-width: 3; stroke-linecap: square"/>
    </g>
    <g id="text_28">
     <!-- Accuracy (Presentation Score) -->
     <g transform="translate(593.87 269.992524) scale(0.1 -0.1)">
      <defs>
       <path id="DejaVuSans-79" d="M 2059 -325 
Q 1816 -950 1584 -1140 
Q 1353 -1331 966 -1331 
L 506 -1331 
L 506 -850 
L 844 -850 
Q 1081 -850 1212 -737 
Q 1344 -625 1503 -206 
L 1606 56 
L 191 3500 
L 800 3500 
L 1894 763 
L 2988 3500 
L 3597 3500 
L 2059 -325 
z
" transform="scale(0.015625)"/>
      </defs>
      <use xlink:href="#DejaVuSans-41"/>
      <use xlink:href="#DejaVuSans-63" x="66.658203"/>
      <use xlink:href="#DejaVuSans-63" x="121.638672"/>
      <use xlink:href="#DejaVuSans-75" x="176.619141"/>
      <use xlink:href="#DejaVuSans-72" x="239.998047"/>
      <use xlink:href="#DejaVuSans-61" x="281.111328"/>
      <use xlink:href="#DejaVuSans-63" x="342.390625"/>
      <use xlink:href="#DejaVuSans-79" x="397.371094"/>
      <use xlink:href="#DejaVuSans-20" x="456.550781"/>
      <use xlink:href="#DejaVuSans-28" x="488.337891"/>
      <use xlink:href="#DejaVuSans-50" x="527.351562"/>
      <use xlink:href="#DejaVuSans-72" x="585.904297"/>
      <use xlink:href="#DejaVuSans-65" x="624.767578"/>
      <use xlink:href="#DejaVuSans-73" x="686.291016"/>
      <use xlink:href="#DejaVuSans-65" x="738.390625"/>
      <use xlink:href="#DejaVuSans-6e" x="799.914062"/>
      <use xlink:href="#DejaVuSans-74" x="863.292969"/>
      <use xlink:href="#DejaVuSans-61" x="902.501953"/>
      <use xlink:href="#DejaVuSans-74" x="963.78125"/>
      <use xlink:href="#DejaVuSans-69" x="1002.990234"/>
      <use xlink:href="#DejaVuSans-6f" x="1030.773438"/>
      <use xlink:href="#DejaVuSans-6e" x="1091.955078"/>
      <use xlink:href="#DejaVuSans-20" x="1155.333984"/>
      <use xlink:href="#DejaVuSans-53" x="1187.121094"/>
      <use xlink:href="#DejaVuSans-63" x="1250.597656"/>
      <use xlink:href="#DejaVuSans-6f" x="1305.578125"/>
      <use xlink:href="#DejaVuSans-72" x="1366.759766"/>
      <use xlink:href="#DejaVuSans-65" x="1405.623047"/>
      <use xlink:href="#DejaVuSans-29" x="1467.146484"/>
     </g>
    </g>
    <g id="line2d_34">
     <path d="M 565.87 281.170649 
L 575.87 281.170649 
L 585.87 281.170649 
" style="fill: none; stroke: #ccff00; stroke-width: 3; stroke-linecap: square"/>
    </g>
    <g id="text_29">
     <!-- Recall (Presentation Score) -->
     <g transform="translate(593.87 284.670649) scale(0.1 -0.1)">
      <defs>
       <path id="DejaVuSans-52" d="M 2841 2188 
Q 3044 2119 3236 1894 
Q 3428 1669 3622 1275 
L 4263 0 
L 3584 0 
L 2988 1197 
Q 2756 1666 2539 1819 
Q 2322 1972 1947 1972 
L 1259 1972 
L 1259 0 
L 628 0 
L 628 4666 
L 2053 4666 
Q 2853 4666 3247 4331 
Q 3641 3997 3641 3322 
Q 3641 2881 3436 2590 
Q 3231 2300 2841 2188 
z
M 1259 4147 
L 1259 2491 
L 2053 2491 
Q 2509 2491 2742 2702 
Q 2975 2913 2975 3322 
Q 2975 3731 2742 3939 
Q 2509 4147 2053 4147 
L 1259 4147 
z
" transform="scale(0.015625)"/>
      </defs>
      <use xlink:href="#DejaVuSans-52"/>
      <use xlink:href="#DejaVuSans-65" x="64.982422"/>
      <use xlink:href="#DejaVuSans-63" x="126.505859"/>
      <use xlink:href="#DejaVuSans-61" x="181.486328"/>
      <use xlink:href="#DejaVuSans-6c" x="242.765625"/>
      <use xlink:href="#DejaVuSans-6c" x="270.548828"/>
      <use xlink:href="#DejaVuSans-20" x="298.332031"/>
      <use xlink:href="#DejaVuSans-28" x="330.119141"/>
      <use xlink:href="#DejaVuSans-50" x="369.132812"/>
      <use xlink:href="#DejaVuSans-72" x="427.685547"/>
      <use xlink:href="#DejaVuSans-65" x="466.548828"/>
      <use xlink:href="#DejaVuSans-73" x="528.072266"/>
      <use xlink:href="#DejaVuSans-65" x="580.171875"/>
      <use xlink:href="#DejaVuSans-6e" x="641.695312"/>
      <use xlink:href="#DejaVuSans-74" x="705.074219"/>
      <use xlink:href="#DejaVuSans-61" x="744.283203"/>
      <use xlink:href="#DejaVuSans-74" x="805.5625"/>
      <use xlink:href="#DejaVuSans-69" x="844.771484"/>
      <use xlink:href="#DejaVuSans-6f" x="872.554688"/>
      <use xlink:href="#DejaVuSans-6e" x="933.736328"/>
      <use xlink:href="#DejaVuSans-20" x="997.115234"/>
      <use xlink:href="#DejaVuSans-53" x="1028.902344"/>
      <use xlink:href="#DejaVuSans-63" x="1092.378906"/>
      <use xlink:href="#DejaVuSans-6f" x="1147.359375"/>
      <use xlink:href="#DejaVuSans-72" x="1208.541016"/>
      <use xlink:href="#DejaVuSans-65" x="1247.404297"/>
      <use xlink:href="#DejaVuSans-29" x="1308.927734"/>
     </g>
    </g>
    <g id="line2d_35">
     <path d="M 565.87 295.848774 
L 575.87 295.848774 
L 585.87 295.848774 
" style="fill: none; stroke: #eab64e; stroke-width: 3; stroke-linecap: square"/>
    </g>
    <g id="text_30">
     <!-- Precision (Presentation Score) -->
     <g transform="translate(593.87 299.348774) scale(0.1 -0.1)">
      <use xlink:href="#DejaVuSans-50"/>
      <use xlink:href="#DejaVuSans-72" x="58.552734"/>
      <use xlink:href="#DejaVuSans-65" x="97.416016"/>
      <use xlink:href="#DejaVuSans-63" x="158.939453"/>
      <use xlink:href="#DejaVuSans-69" x="213.919922"/>
      <use xlink:href="#DejaVuSans-73" x="241.703125"/>
      <use xlink:href="#DejaVuSans-69" x="293.802734"/>
      <use xlink:href="#DejaVuSans-6f" x="321.585938"/>
      <use xlink:href="#DejaVuSans-6e" x="382.767578"/>
      <use xlink:href="#DejaVuSans-20" x="446.146484"/>
      <use xlink:href="#DejaVuSans-28" x="477.933594"/>
      <use xlink:href="#DejaVuSans-50" x="516.947266"/>
      <use xlink:href="#DejaVuSans-72" x="575.5"/>
      <use xlink:href="#DejaVuSans-65" x="614.363281"/>
      <use xlink:href="#DejaVuSans-73" x="675.886719"/>
      <use xlink:href="#DejaVuSans-65" x="727.986328"/>
      <use xlink:href="#DejaVuSans-6e" x="789.509766"/>
      <use xlink:href="#DejaVuSans-74" x="852.888672"/>
      <use xlink:href="#DejaVuSans-61" x="892.097656"/>
      <use xlink:href="#DejaVuSans-74" x="953.376953"/>
      <use xlink:href="#DejaVuSans-69" x="992.585938"/>
      <use xlink:href="#DejaVuSans-6f" x="1020.369141"/>
      <use xlink:href="#DejaVuSans-6e" x="1081.550781"/>
      <use xlink:href="#DejaVuSans-20" x="1144.929688"/>
      <use xlink:href="#DejaVuSans-53" x="1176.716797"/>
      <use xlink:href="#DejaVuSans-63" x="1240.193359"/>
      <use xlink:href="#DejaVuSans-6f" x="1295.173828"/>
      <use xlink:href="#DejaVuSans-72" x="1356.355469"/>
      <use xlink:href="#DejaVuSans-65" x="1395.21875"/>
      <use xlink:href="#DejaVuSans-29" x="1456.742188"/>
     </g>
    </g>
   </g>
  </g>
 </g>
 <defs>
  <clipPath id="pb657abc713">
   <rect x="47.72" y="26.68875" width="509.15" height="437.054422"/>
  </clipPath>
 </defs>
</svg>
